<svg width="84" height="17" viewBox="0 0 84 17" fill="none" xmlns="http://www.w3.org/2000/svg">
<path fill-rule="evenodd" clip-rule="evenodd" d="M8.24486 3.84519V6.20374H5.65729V12.5722C5.60361 12.9975 5.71112 13.4276 5.95864 13.7776C6.30939 14.0233 6.73922 14.1294 7.16403 14.0749H7.16405C7.36092 14.0749 7.56583 14.0749 7.73458 14.0508C7.91015 14.0367 8.08463 14.0112 8.25691 13.9745V16.7067C7.92823 16.7579 7.59687 16.7901 7.26448 16.8031C7.07964 16.8031 6.89788 16.8103 6.71816 16.8174L6.71807 16.8174C6.54232 16.8244 6.36852 16.8312 6.1957 16.8312C5.67061 16.8232 5.14684 16.7761 4.62869 16.6906C4.17579 16.6263 3.73859 16.4792 3.33893 16.2567C2.96415 16.0385 2.65794 15.7198 2.45498 15.3366C2.22418 14.8504 2.11524 14.3153 2.13756 13.7776V6.20374H0V3.84519H2.13756V0H5.65729V3.84519H8.24486ZM13.2794 3.84519V6.22785H13.3276C13.4959 5.82864 13.722 5.45634 13.9986 5.12291C14.2764 4.78852 14.6012 4.49618 14.9629 4.25503C15.3261 4.01778 15.7193 3.82996 16.1321 3.69653C16.5496 3.56604 16.9845 3.49965 17.4219 3.49965C17.6837 3.50348 17.9436 3.54544 18.1933 3.62421V6.89885C18.0286 6.8667 17.8277 6.83858 17.5987 6.81045C17.3758 6.78692 17.1518 6.77485 16.9277 6.77429C16.3636 6.75719 15.8031 6.86848 15.2883 7.09974C14.86 7.29773 14.4883 7.60033 14.2075 7.97968C13.9268 8.36948 13.7286 8.81245 13.6249 9.2815C13.5057 9.8088 13.4477 10.3481 13.4521 10.8887V16.6745H9.92838V3.84519H13.2794ZM28.2664 14.8906V16.6786H31.6214V3.84519H28.0976V10.5592C28.0976 11.865 27.8847 12.8012 27.4547 13.3718C27.0235 13.9423 26.3284 14.2276 25.3694 14.2276C24.5283 14.2276 23.9404 13.9678 23.6055 13.4481C23.2279 12.7177 23.057 11.898 23.1113 11.0775V3.84519H19.5835V11.7325C19.5767 12.461 19.6467 13.1883 19.7925 13.9022C19.9101 14.5039 20.1599 15.0721 20.5237 15.5656C20.897 16.0372 21.3895 16.4006 21.9501 16.6183C22.6931 16.8909 23.4816 17.0178 24.2725 16.992C25.0275 16.9917 25.7729 16.8229 26.4543 16.4978C27.1852 16.1531 27.7926 15.592 28.194 14.8906H28.2664Z" fill="#F0812E"/>
<path fill-rule="evenodd" clip-rule="evenodd" d="M52.121 3.84117C52.6284 3.83992 53.1338 3.90613 53.6237 4.03805C54.0722 4.15813 54.4935 4.36269 54.8653 4.64075C55.2247 4.91786 55.5138 5.27575 55.7091 5.68542C55.9278 6.15551 56.0351 6.66978 56.0225 7.18813C56.0394 7.94205 55.8203 8.6824 55.3957 9.3056C54.9479 9.92178 54.275 10.3362 53.5233 10.4588V10.4949C53.8894 10.5369 54.244 10.6488 54.568 10.8244C54.839 10.9804 55.0733 11.1927 55.255 11.4472C55.4334 11.7121 55.5615 12.0077 55.6327 12.3191C55.7131 12.6705 55.7642 13.028 55.7854 13.3879C55.7854 13.539 55.7952 13.7117 55.8065 13.9125L55.8065 13.9127L55.8065 13.9133L55.8066 13.9142C55.8115 14.0012 55.8167 14.0934 55.8216 14.1914C55.8376 14.5169 55.8577 14.8182 55.8939 15.1357C55.9254 15.4385 55.9818 15.7382 56.0626 16.0317C56.1192 16.271 56.2261 16.4957 56.376 16.6906H55.03C54.9513 16.5529 54.8944 16.4038 54.8613 16.2486C54.8178 16.0716 54.7869 15.8917 54.7688 15.7102C54.7688 15.5955 54.7565 15.4808 54.7442 15.3671L54.7442 15.3671L54.7442 15.367L54.7442 15.367C54.7367 15.2975 54.7292 15.2283 54.7247 15.1598C54.7126 14.979 54.7005 14.8263 54.6885 14.6937C54.6644 14.2397 54.6242 13.7856 54.572 13.3356C54.526 12.9176 54.4106 12.5102 54.2304 12.1302C54.06 11.7823 53.7991 11.4867 53.4751 11.2744C53.0637 11.0385 52.5888 10.9373 52.117 10.9851H47.4682V16.6786H46.2427V3.84117H52.121ZM52.0407 9.93642C52.4014 9.93877 52.76 9.88036 53.1014 9.76365C53.4247 9.65915 53.7239 9.49112 53.9813 9.26944C54.2478 9.04557 54.4605 8.76468 54.6037 8.44755C54.747 8.13042 54.8172 7.78515 54.809 7.43725C54.8275 7.09582 54.7765 6.75419 54.6591 6.43304C54.5417 6.1119 54.3603 5.81792 54.126 5.5689C53.6719 5.11085 52.9768 4.88584 52.0407 4.88584H47.4682V9.93642H52.0407ZM39.6814 3.84117C40.2035 3.84024 40.7244 3.89138 41.2364 3.99386C41.7029 4.08499 42.1484 4.26211 42.5502 4.51619C42.9272 4.76192 43.2389 5.09562 43.4583 5.48854C43.8399 6.2596 43.9048 7.14935 43.6391 7.96762C43.5406 8.27728 43.3927 8.56899 43.2011 8.83148C43.0042 9.08686 42.7667 9.30812 42.498 9.48641C42.2224 9.66946 41.9141 9.7977 41.5899 9.8641V9.90026C42.3542 9.9752 43.0612 10.3387 43.5668 10.9168C44.0671 11.5051 44.3306 12.2584 44.3061 13.0303C44.3031 13.2616 44.2843 13.4925 44.2498 13.7213C44.1724 14.3092 43.9363 14.8648 43.5668 15.3285C43.3464 15.6089 43.0734 15.8437 42.7632 16.0196C42.367 16.2389 41.9424 16.4025 41.5015 16.5058C40.9154 16.641 40.315 16.7044 39.7135 16.6946H34.2531V3.84117H39.6814ZM39.6814 9.46632C40.1136 9.4734 40.5443 9.41516 40.9591 9.29355C41.286 9.19675 41.5915 9.03857 41.8591 8.82746C42.0865 8.64526 42.2705 8.41466 42.3975 8.15245C42.5188 7.88637 42.5805 7.59704 42.5783 7.30466C42.5783 5.69747 41.6127 4.89388 39.6814 4.89388H35.4746V9.47034L39.6814 9.46632ZM39.6814 15.6299C40.1154 15.6333 40.5488 15.5943 40.9752 15.5134C41.3586 15.4525 41.726 15.3159 42.056 15.1116C42.3667 14.9108 42.6211 14.6343 42.7953 14.308C42.9864 13.9085 43.0788 13.4689 43.0645 13.0262C43.0874 12.6669 43.0191 12.3075 42.8659 11.9816C42.7128 11.6557 42.4798 11.3737 42.1886 11.1619C41.4365 10.7024 40.5609 10.4863 39.6814 10.5431H35.4746V15.6339L39.6814 15.6299ZM68.3897 16.6786L63.3593 3.84117H61.9972L56.8341 16.6786H58.1319L59.6748 12.6847H65.5129L67.0799 16.6786H68.3897ZM62.6199 5.06263L65.103 11.6441H60.0525L62.6199 5.06263ZM70.8728 3.84117V16.6786H69.6674V3.84117H70.8728ZM82.3763 14.6897L74.8988 3.84117H73.5287V16.6786H74.7341V5.83006H74.7703L82.2517 16.6786H83.6178V3.84117H82.4124V14.6897H82.3763Z" fill="white"/>
</svg>
