<svg width="57" height="11" viewBox="0 0 57 11" fill="none" xmlns="http://www.w3.org/2000/svg">
<path d="M5.02759 0.944824L6.15635 4.4188L9.80911 4.4188L6.85397 6.56584L7.98273 10.0398L5.02759 7.89278L2.07245 10.0398L3.20121 6.56584L0.246068 4.4188L3.89882 4.4188L5.02759 0.944824Z" fill="#222222"/>
<path d="M16.72 0.944824L17.8487 4.4188L21.5015 4.4188L18.5463 6.56584L19.6751 10.0398L16.72 7.89278L13.7648 10.0398L14.8936 6.56584L11.9385 4.4188L15.5912 4.4188L16.72 0.944824Z" fill="#222222"/>
<path d="M28.4114 0.944824L29.5401 4.4188L33.1929 4.4188L30.2378 6.56584L31.3665 10.0398L28.4114 7.89278L25.4562 10.0398L26.585 6.56584L23.6299 4.4188L27.2826 4.4188L28.4114 0.944824Z" fill="#222222"/>
<path d="M40.1038 0.944824L41.2325 4.4188L44.8853 4.4188L41.9301 6.56584L43.0589 10.0398L40.1038 7.89278L37.1486 10.0398L38.2774 6.56584L35.3222 4.4188L38.975 4.4188L40.1038 0.944824Z" fill="#222222"/>
<path d="M51.7986 0.944824L52.9273 4.4188L56.5801 4.4188L53.625 6.56584L54.7537 10.0398L51.7986 7.89278L48.8434 10.0398L49.9722 6.56584L47.0171 4.4188L50.6698 4.4188L51.7986 0.944824Z" fill="#222222"/>
</svg>
