<svg width="85" height="26" viewBox="0 0 85 26" fill="none" xmlns="http://www.w3.org/2000/svg">
<path d="M0.599609 13.0765C0.599609 20.1118 6.29626 25.9236 13.1922 25.9236C20.0881 25.9236 25.7848 20.1118 25.7848 13.0765C25.7848 6.0412 20.0881 0.305908 13.1922 0.305908C6.29626 0.305908 0.599609 6.0412 0.599609 13.0765ZM17.8395 19.0412C14.9162 17.2059 11.1684 16.7471 6.82095 17.7412C5.77157 17.8941 5.62166 16.3647 6.52113 16.2118C11.3183 15.0647 15.3659 15.6 18.664 17.6647C19.4885 18.2 18.664 19.5 17.8395 19.0412ZM19.1137 15.6C15.7407 13.4588 10.5687 12.8471 6.59608 14.0706C5.32183 14.453 4.8721 12.4647 6.07139 12.1588C10.6437 10.7824 16.2654 11.4706 20.1631 13.9177C21.2125 14.6059 20.1631 16.2883 19.1137 15.6ZM5.99644 10.1706C4.72218 10.6294 3.89767 8.41179 5.32183 7.8765C9.74423 6.50003 17.2398 6.72944 21.8871 9.55885C23.1613 10.2471 21.962 12.3883 20.6128 11.6236C16.5652 9.1765 9.81919 8.94708 5.99644 10.1706ZM34.4047 17.1294C33.1305 17.1294 31.9312 16.6706 30.8818 15.6C30.8068 15.6 30.8068 15.6765 30.8068 15.6765L29.6075 17.1294C29.5326 17.2059 29.5326 17.2824 29.6075 17.3588C30.9568 18.5824 32.6058 19.1941 34.4047 19.1941C36.9532 19.1941 38.5273 17.7412 38.5273 15.6C38.5273 13.7647 37.403 12.7706 34.7795 12.0824C32.6058 11.5471 32.231 11.1647 32.231 10.4C32.231 9.63532 32.9806 9.1765 33.955 9.1765C34.9294 9.1765 35.8289 9.55885 36.8783 10.3236C36.8783 10.3236 36.9532 10.4 37.0282 10.4C37.1031 10.4 37.1031 10.3236 37.1031 10.3236L38.1525 8.79414C38.2275 8.71767 38.2275 8.71767 38.1525 8.6412C36.9532 7.64708 35.5291 7.11179 33.955 7.11179C31.6314 7.11179 29.9823 8.56473 29.9823 10.6294C29.9823 12.8471 31.4814 13.5353 33.88 14.1471C35.9788 14.6059 36.2786 15.0647 36.2786 15.8294C36.2786 16.6706 35.5291 17.1294 34.4047 17.1294ZM41.5255 11.2412V10.2471C41.5255 10.1706 41.4506 10.0941 41.3756 10.0941H39.4268C39.3518 10.0941 39.2769 10.1706 39.2769 10.2471V21.4883C39.2769 21.5647 39.3518 21.6412 39.4268 21.6412H41.3756C41.4506 21.6412 41.5255 21.5647 41.5255 21.4883V17.9706C42.2751 18.8118 43.0996 19.1941 44.2239 19.1941C46.2478 19.1941 48.2716 17.5883 48.2716 14.5294C48.2716 11.4706 46.2478 9.9412 44.2239 9.9412C43.0996 9.9412 42.2751 10.3236 41.5255 11.2412ZM43.7742 17.2059C42.425 17.2059 41.4506 16.0588 41.4506 14.5294C41.4506 13 42.425 11.9294 43.7742 11.9294C45.1234 11.9294 46.0229 13 46.0229 14.5294C46.0229 16.0588 45.1234 17.2059 43.7742 17.2059ZM48.8712 14.6059C48.8712 17.2059 50.895 19.1941 53.5185 19.1941C56.1419 19.1941 58.1657 17.1294 58.1657 14.5294C58.1657 11.9294 56.2169 9.9412 53.5934 9.9412C50.97 9.9412 48.8712 12.0059 48.8712 14.6059ZM51.1199 14.5294C51.1199 13 52.0943 11.9294 53.5185 11.9294C54.9426 11.9294 55.992 13.0765 55.992 14.6059C55.992 16.1353 55.0176 17.2059 53.5934 17.2059C52.1693 17.2059 51.1199 16.0588 51.1199 14.5294ZM61.6137 10.0941V7.8765C61.6137 7.80003 61.6137 7.72355 61.5388 7.72355H59.5899C59.515 7.72355 59.44 7.80003 59.44 7.8765V10.0941H58.4656C58.3906 10.0941 58.3157 10.1706 58.3157 10.2471V11.9294C58.3157 12.0059 58.3906 12.0824 58.4656 12.0824H59.44V16.5177C59.44 18.2765 60.2645 19.1941 61.9885 19.1941C62.6631 19.1941 63.3377 19.0412 63.8624 18.7353C63.9374 18.7353 63.9374 18.6588 63.9374 18.5824V16.9765C63.9374 16.9 63.9374 16.8236 63.8624 16.8236H63.7125C63.3377 17.053 62.888 17.1294 62.5132 17.1294C61.9135 17.1294 61.6137 16.8236 61.6137 16.2118V12.0824H63.8624C63.9374 12.0824 64.0123 12.0059 64.0123 11.9294V10.2471C64.0123 10.1706 63.9374 10.0941 63.8624 10.0941H61.6137ZM71.283 9.86473C71.283 9.02355 71.5829 8.71767 72.2575 8.71767C72.6322 8.71767 73.007 8.71767 73.3818 8.87061H73.4568C73.4568 8.87061 73.5317 8.79414 73.5317 8.71767V7.11179C73.5317 7.03532 73.5317 6.95885 73.4568 6.95885C73.082 6.80591 72.5573 6.72944 71.8077 6.72944C70.0088 6.72944 69.1093 7.80003 69.1093 9.71179V10.0941H68.1349C68.0599 10.0941 67.985 10.1706 67.985 10.2471V11.9294C67.985 12.0059 68.0599 12.0824 68.1349 12.0824H69.1093V18.8883C69.1093 18.9647 69.1843 19.0412 69.2592 19.0412H71.2081C71.283 19.0412 71.283 18.9647 71.283 18.8883V12.0824H73.1569L75.9303 18.8883C75.6305 19.5765 75.3307 19.7294 74.8809 19.7294C74.5061 19.7294 74.1314 19.653 73.7566 19.4236H73.6816L73.6067 19.5L72.9321 20.953C72.9321 21.0294 72.9321 21.1824 73.007 21.1824C73.6816 21.5647 74.2813 21.7177 75.0308 21.7177C76.455 21.7177 77.2795 21.0294 77.9541 19.1941L81.3271 10.3236V10.1706C81.3271 10.0941 81.2522 10.0941 81.1772 10.0941H79.1534C79.0784 10.0941 79.0784 10.1706 79.0784 10.2471L76.9797 16.2118L74.731 10.2471C74.731 10.1706 74.6561 10.0941 74.5811 10.0941H71.283V9.86473ZM65.0617 10.0941C64.9867 10.0941 64.9118 10.1706 64.9118 10.2471V18.8883C64.9118 18.9647 64.9867 19.0412 65.0617 19.0412H67.0105C67.0855 19.0412 67.0855 18.9647 67.0855 18.8883V10.2471C67.0855 10.1706 67.0855 10.0941 67.0105 10.0941H65.0617ZM64.612 7.57061C64.612 8.33532 65.2866 9.02355 66.0361 9.02355C66.7857 9.02355 67.3853 8.33532 67.3853 7.57061C67.3853 6.80591 66.7857 6.19414 66.0361 6.19414C65.2866 6.19414 64.612 6.80591 64.612 7.57061ZM82.9762 12.8471C83.7257 12.8471 84.4003 12.2353 84.4003 11.4706C84.4003 10.7059 83.7257 10.0941 82.9762 10.0941C82.2266 10.0941 81.6269 10.7059 81.6269 11.4706C81.6269 12.2353 82.2266 12.8471 82.9762 12.8471ZM82.9762 10.2471C83.6508 10.2471 84.2504 10.7824 84.2504 11.4706C84.2504 12.1588 83.6508 12.6941 82.9762 12.6941C82.3016 12.6941 81.7769 12.1588 81.7769 11.4706C81.7769 10.7824 82.3016 10.2471 82.9762 10.2471ZM83.276 11.6236C83.5008 11.5471 83.6508 11.3941 83.6508 11.1647C83.6508 10.8588 83.3509 10.7059 83.0511 10.7059H82.4515V12.1588H82.7513V11.7H83.0511L83.3509 12.1588H83.7257L83.276 11.6236ZM83.0511 10.9353C83.201 10.9353 83.3509 11.0118 83.3509 11.1647C83.3509 11.3177 83.201 11.3941 83.0511 11.3941H82.7513V10.9353H83.0511Z" fill="#66D36E"/>
</svg>
